<svg id="Capa_1" enable-background="new 0 0 504.5 504.5" height="512" viewBox="0 0 504.5 504.5" width="512" xmlns="http://www.w3.org/2000/svg"><g><circle cx="238.856" cy="276.702" fill="#f3f1f4" r="227.798"/><path d="m238.856 48.904c-3.942 0-7.86.1-11.752.298 120.348 6.116 216.046 105.632 216.046 227.5s-95.698 221.384-216.046 227.5c3.893.198 7.811.298 11.752.298 125.809 0 227.798-101.989 227.798-227.798s-101.989-227.798-227.798-227.798z" fill="#e1dee2"/><circle cx="238.856" cy="276.702" fill="#ffe177" r="181.482"/><path d="m238.856 95.22c-3.949 0-7.866.14-11.752.389 94.751 6.058 169.729 84.812 169.729 181.092s-74.979 175.034-169.729 181.093c3.887.249 7.803.389 11.752.389 100.229 0 181.482-81.252 181.482-181.482-.001-100.229-81.253-181.481-181.482-181.481z" fill="#ffd15b"/><path d="m297.76 268.91c-2.02 12.95-8.24 24.52-17.22 33.25h-23.51l-59.06-.01c-.2-.19-.4-.39-.6-.59-8.67-8.66-14.66-20-16.64-32.67-.76-4.84 3.01-9.21 7.91-9.21h101.22c4.9 0 8.66 4.38 7.9 9.23z" fill="#978ecb"/><path d="m297.76 268.91c-2.02 12.95-8.24 24.52-17.22 33.25h-23.51c8.99-8.74 15.22-20.32 17.24-33.29.58-3.73-1.25-7.42-4.57-9.19h20.16c4.9 0 8.66 4.38 7.9 9.23z" fill="#8379c1"/><ellipse cx="358.548" cy="272.601" fill="#fe99a0" rx="28.844" ry="16.697"/><path d="m358.548 255.904c-4.187 0-8.162.521-11.752 1.449 10.07 2.605 17.092 8.45 17.092 15.247s-7.022 12.642-17.092 15.247c3.591.929 7.565 1.449 11.752 1.449 15.93 0 28.844-7.475 28.844-16.697s-12.914-16.695-28.844-16.695z" fill="#fd8087"/><ellipse cx="119.164" cy="272.601" fill="#fe99a0" rx="28.844" ry="16.697"/><path d="m119.164 255.904c-4.187 0-8.162.521-11.752 1.449 10.071 2.605 17.092 8.45 17.092 15.247s-7.022 12.642-17.092 15.247c3.591.929 7.565 1.449 11.752 1.449 15.93 0 28.845-7.475 28.845-16.697s-12.915-16.695-28.845-16.695z" fill="#fd8087"/><path d="m280.536 302.155c-10.676 10.365-25.23 16.76-41.289 16.76-16.048 0-30.613-6.395-41.279-16.77 11.006-9.703 25.461-15.597 41.279-15.597 15.828 0 30.282 5.894 41.289 15.607z" fill="#fd4755"/><path d="m265.231 292.214c-2.374 3.605-5.117 6.945-8.2 9.941-8 7.767-18.178 13.304-29.534 15.592 3.798.766 7.727 1.168 11.75 1.168 16.058 0 30.613-6.395 41.289-16.76-4.557-4.022-9.713-7.376-15.305-9.941z" fill="#fb2b3a"/><path d="m485.942 16.243h-8.742v-8.743c0-4.142-3.358-7.5-7.5-7.5s-7.5 3.358-7.5 7.5v8.743h-8.743c-4.142 0-7.5 3.358-7.5 7.5s3.358 7.5 7.5 7.5h8.743v8.743c0 4.142 3.358 7.5 7.5 7.5s7.5-3.358 7.5-7.5v-8.743h8.743c4.142 0 7.5-3.358 7.5-7.5s-3.359-7.5-7.501-7.5z" fill="#ffe177"/><path d="m52.756 450.684h-8.743v-8.743c0-4.142-3.358-7.5-7.5-7.5s-7.5 3.358-7.5 7.5v8.743h-8.743c-4.142 0-7.5 3.358-7.5 7.5s3.358 7.5 7.5 7.5h8.743v8.743c0 4.142 3.358 7.5 7.5 7.5s7.5-3.358 7.5-7.5v-8.743h8.743c4.142 0 7.5-3.358 7.5-7.5s-3.358-7.5-7.5-7.5z" fill="#ffe177"/><circle cx="424.134" cy="76.571" fill="#ffd15b" r="7.632"/><g fill="#8379c1"><path d="m173.537 232.461c-4.142 0-7.5-3.358-7.5-7.5 0-6.635-5.398-12.033-12.033-12.033s-12.033 5.398-12.033 12.033c0 4.142-3.358 7.5-7.5 7.5s-7.5-3.358-7.5-7.5c0-14.906 12.127-27.033 27.033-27.033s27.033 12.127 27.033 27.033c0 4.143-3.358 7.5-7.5 7.5z"/><path d="m341.237 232.461c-4.142 0-7.5-3.358-7.5-7.5 0-6.635-5.398-12.033-12.033-12.033s-12.033 5.398-12.033 12.033c0 4.142-3.358 7.5-7.5 7.5s-7.5-3.358-7.5-7.5c0-14.906 12.127-27.033 27.033-27.033s27.033 12.127 27.033 27.033c0 4.143-3.358 7.5-7.5 7.5z"/></g></g></svg>